<svg width="1500" height="500" viewBox="0 0 1500 500" fill="none" xmlns="http://www.w3.org/2000/svg">
<g filter="url(#filter0_i_1_3)">
<path d="M0 40C0 17.9086 17.9086 0 40 0H1460C1482.09 0 1500 17.9086 1500 40V460C1500 482.091 1482.09 500 1460 500H40C17.9086 500 0 482.091 0 460V40Z" fill="#292929"/>
<circle cx="237" cy="236" r="200" fill="url(#paint0_angular_1_3)"/>
<path d="M67.0952 222V152.182H75.5497V183.273H112.777V152.182H121.232V222H112.777V190.773H75.5497V222H67.0952ZM138.158 222V152.182H161.749C167.203 152.182 171.68 153.114 175.18 154.977C178.68 156.818 181.271 159.352 182.953 162.58C184.635 165.807 185.476 169.477 185.476 173.591C185.476 177.705 184.635 181.352 182.953 184.534C181.271 187.716 178.692 190.216 175.214 192.034C171.737 193.83 167.294 194.727 161.885 194.727H142.794V187.091H161.612C165.339 187.091 168.339 186.545 170.612 185.455C172.908 184.364 174.567 182.818 175.589 180.818C176.635 178.795 177.158 176.386 177.158 173.591C177.158 170.795 176.635 168.352 175.589 166.261C174.544 164.17 172.874 162.557 170.578 161.42C168.283 160.261 165.249 159.682 161.476 159.682H146.612V222H138.158ZM171.021 190.636L188.203 222H178.385L161.476 190.636H171.021ZM195.746 159.682V152.182H248.109V159.682H226.155V222H217.7V159.682H195.746ZM261.158 222V152.182H269.612V186.818H270.43L301.794 152.182H312.839L283.521 183.682L312.839 222H302.612L278.339 189.545L269.612 199.364V222H261.158ZM344.783 151.227C347.646 151.25 350.51 151.795 353.374 152.864C356.237 153.932 358.851 155.705 361.214 158.182C363.578 160.636 365.476 163.989 366.908 168.239C368.339 172.489 369.055 177.818 369.055 184.227C369.055 190.432 368.464 195.943 367.283 200.761C366.124 205.557 364.442 209.602 362.237 212.898C360.055 216.193 357.396 218.693 354.26 220.398C351.146 222.102 347.624 222.955 343.692 222.955C339.783 222.955 336.294 222.182 333.226 220.636C330.18 219.068 327.68 216.898 325.726 214.125C323.794 211.33 322.555 208.091 322.01 204.409H330.328C331.078 207.614 332.567 210.261 334.794 212.352C337.044 214.42 340.01 215.455 343.692 215.455C349.078 215.455 353.328 213.102 356.442 208.398C359.578 203.693 361.146 197.045 361.146 188.455H360.601C359.328 190.364 357.817 192.011 356.067 193.398C354.317 194.784 352.374 195.852 350.237 196.602C348.101 197.352 345.828 197.727 343.419 197.727C339.419 197.727 335.749 196.739 332.408 194.761C329.089 192.761 326.43 190.023 324.43 186.545C322.453 183.045 321.464 179.045 321.464 174.545C321.464 170.273 322.419 166.364 324.328 162.818C326.26 159.25 328.964 156.409 332.442 154.295C335.942 152.182 340.055 151.159 344.783 151.227ZM344.783 158.727C341.919 158.727 339.339 159.443 337.044 160.875C334.771 162.284 332.964 164.193 331.624 166.602C330.305 168.989 329.646 171.636 329.646 174.545C329.646 177.455 330.283 180.102 331.555 182.489C332.851 184.852 334.612 186.739 336.839 188.148C339.089 189.534 341.646 190.227 344.51 190.227C346.669 190.227 348.68 189.807 350.544 188.966C352.408 188.102 354.033 186.932 355.419 185.455C356.828 183.955 357.93 182.261 358.726 180.375C359.521 178.466 359.919 176.477 359.919 174.409C359.919 171.682 359.26 169.125 357.942 166.739C356.646 164.352 354.851 162.42 352.555 160.943C350.283 159.466 347.692 158.727 344.783 158.727ZM382.462 222V215.864L405.507 190.636C408.212 187.682 410.439 185.114 412.189 182.932C413.939 180.727 415.234 178.659 416.075 176.727C416.939 174.773 417.371 172.727 417.371 170.591C417.371 168.136 416.78 166.011 415.598 164.216C414.439 162.42 412.848 161.034 410.825 160.057C408.803 159.08 406.53 158.591 404.007 158.591C401.325 158.591 398.984 159.148 396.984 160.261C395.007 161.352 393.473 162.886 392.382 164.864C391.314 166.841 390.78 169.159 390.78 171.818H382.734C382.734 167.727 383.678 164.136 385.564 161.045C387.45 157.955 390.018 155.545 393.268 153.818C396.541 152.091 400.212 151.227 404.28 151.227C408.371 151.227 411.996 152.091 415.155 153.818C418.314 155.545 420.791 157.875 422.587 160.807C424.382 163.739 425.28 167 425.28 170.591C425.28 173.159 424.814 175.67 423.882 178.125C422.973 180.557 421.382 183.273 419.109 186.273C416.859 189.25 413.734 192.886 409.734 197.182L394.053 213.955V214.5H426.507V222H382.462Z" fill="white"/>
<path d="M74.236 274.088L74.268 276.52C76.124 276.648 77.788 276.712 79.644 276.712C83.388 276.712 87.292 276.456 90.684 275.88V273.416C87.452 274.088 83.516 274.376 79.676 274.376C77.788 274.376 76.06 274.28 74.236 274.088ZM85.436 268.36H82.556C82.652 268.936 82.684 269.768 82.684 270.344C82.684 271.464 82.716 273.48 82.716 275.688C82.716 279.912 83.132 285.896 83.132 288.2C83.132 290.344 82.364 291.688 79.676 291.688C77.34 291.688 75.772 290.824 75.772 289.16C75.772 287.624 77.436 286.568 79.836 286.568C83.9 286.568 87.132 288.744 90.492 291.88L91.868 289.768C89.18 287.336 85.436 284.616 80.06 284.616C75.836 284.616 73.468 286.728 73.468 289.416C73.468 292.296 75.804 294.024 80.092 294.024C84.412 294.024 85.628 291.464 85.628 288.84C85.628 285.544 85.148 280.552 85.148 275.624C85.148 273.736 85.18 271.464 85.244 270.28C85.276 269.672 85.34 269 85.436 268.36ZM69.66 268.584L66.844 268.328C66.812 269.032 66.748 269.864 66.62 270.632C66.236 273.256 65.148 279.368 65.148 284.072C65.148 288.392 65.756 291.912 66.364 294.216L68.636 294.024C68.604 293.704 68.572 293.224 68.54 292.904C68.508 292.552 68.572 291.912 68.668 291.464C68.988 289.896 70.172 286.632 70.972 284.392L69.66 283.368C69.116 284.68 68.316 286.632 67.804 288.104C67.58 286.536 67.484 285.192 67.484 283.624C67.484 280.04 68.444 273.704 69.084 270.728C69.212 270.152 69.468 269.096 69.66 268.584ZM104.188 267.912L103.548 270.376C106.012 271.016 112.924 272.424 115.996 272.84L116.604 270.408C113.756 270.12 106.94 268.808 104.188 267.912ZM103.484 273.768L100.796 273.416C100.604 276.744 99.804 283.464 99.164 286.376L101.564 286.952C101.756 286.44 102.044 285.928 102.524 285.384C104.764 282.664 108.22 281.096 112.412 281.096C115.676 281.096 118.076 282.92 118.076 285.448C118.076 289.832 113.148 292.744 103.036 291.528L103.804 294.12C115.676 295.112 120.764 291.24 120.764 285.544C120.764 281.768 117.5 278.824 112.604 278.824C108.764 278.824 105.244 280.072 102.172 282.76C102.492 280.68 103.068 275.944 103.484 273.768ZM139.644 267.848L136.604 267.592C136.668 268.264 136.604 269.352 136.476 270.248C136.252 271.912 135.42 275.944 134.652 278.888C133.436 283.4 131.196 289.896 129.276 293.224L132.06 294.152C133.756 290.664 135.9 284.04 137.052 279.496C137.948 276.296 138.62 272.68 139.1 270.376C139.228 269.768 139.452 268.552 139.644 267.848ZM132.572 273.192C131.388 273.192 130.236 273.128 128.732 272.936L128.796 275.432C129.98 275.528 131.1 275.56 132.508 275.56C135.964 275.56 140.796 275.016 144.764 274.12V271.624C140.796 272.616 136.092 273.192 132.572 273.192ZM142.684 277.576V279.976C144.636 279.752 146.62 279.624 148.604 279.624C150.492 279.624 152.348 279.816 154.012 280.008L154.076 277.576C152.348 277.384 150.396 277.32 148.54 277.32C146.492 277.32 144.348 277.416 142.684 277.576ZM143.324 285.352L140.956 285.128C140.668 286.472 140.476 287.688 140.476 288.904C140.476 292.072 143.228 293.608 148.252 293.608C150.588 293.608 152.732 293.416 154.46 293.16L154.556 290.6C152.572 290.984 150.396 291.208 148.284 291.208C143.74 291.208 142.876 289.736 142.876 288.232C142.876 287.4 143.068 286.408 143.324 285.352ZM180.028 269.416L177.628 267.304C177.276 267.88 176.444 268.808 175.804 269.448C173.66 271.624 168.796 275.464 166.364 277.48C163.484 279.912 163.132 281.288 166.14 283.816C169.148 286.28 173.98 290.44 176.252 292.744C177.02 293.544 177.788 294.312 178.46 295.08L180.732 293C177.34 289.576 171.676 285.032 168.764 282.632C166.684 280.904 166.716 280.424 168.636 278.76C171.004 276.776 175.612 273.16 177.82 271.24C178.332 270.792 179.324 269.928 180.028 269.416Z" fill="white"/>
<line x1="37" y1="249.5" x2="455" y2="249.5" stroke="#9C4FD9"/>
<path d="M40 0.5H1460C1481.82 0.5 1499.5 18.1848 1499.5 40V460C1499.5 481.815 1481.82 499.5 1460 499.5H40C18.1847 499.5 0.5 481.815 0.5 460V40C0.5 18.1847 18.1848 0.5 40 0.5Z" stroke="black"/>
</g>
<defs>
<filter id="filter0_i_1_3" x="0" y="0" width="1500" height="504" filterUnits="userSpaceOnUse" color-interpolation-filters="sRGB">
<feFlood flood-opacity="0" result="BackgroundImageFix"/>
<feBlend mode="normal" in="SourceGraphic" in2="BackgroundImageFix" result="shape"/>
<feColorMatrix in="SourceAlpha" type="matrix" values="0 0 0 0 0 0 0 0 0 0 0 0 0 0 0 0 0 0 127 0" result="hardAlpha"/>
<feOffset dy="4"/>
<feGaussianBlur stdDeviation="2"/>
<feComposite in2="hardAlpha" operator="arithmetic" k2="-1" k3="1"/>
<feColorMatrix type="matrix" values="0 0 0 0 0 0 0 0 0 0 0 0 0 0 0 0 0 0 0.25 0"/>
<feBlend mode="normal" in2="shape" result="effect1_innerShadow_1_3"/>
</filter>
<radialGradient id="paint0_angular_1_3" cx="0" cy="0" r="1" gradientUnits="userSpaceOnUse" gradientTransform="translate(237 236) rotate(90) scale(200)">
<stop stop-color="#9920F8"/>
<stop offset="0.232292" stop-color="#9920F8" stop-opacity="0.647917"/>
<stop offset="1" stop-color="#9920F8" stop-opacity="0"/>
</radialGradient>
</defs>
</svg>
