<svg width="1500" height="350" viewBox="0 0 1500 350" fill="none" xmlns="http://www.w3.org/2000/svg">
<g filter="url(#filter0_i_1_3)">
<g clip-path="url(#clip0_1_3)">
<path d="M0 40C0 17.9086 17.9086 0 40 0H1460C1482.09 0 1500 17.9086 1500 40V310C1500 332.091 1482.09 350 1460 350H40C17.9086 350 0 332.091 0 310V40Z" fill="#292929"/>
<circle cx="237" cy="236" r="200" fill="url(#paint0_angular_1_3)"/>
<path d="M58.0952 215V145.182H66.5497V176.273H103.777V145.182H112.232V215H103.777V183.773H66.5497V215H58.0952ZM129.158 215V145.182H152.749C158.203 145.182 162.68 146.114 166.18 147.977C169.68 149.818 172.271 152.352 173.953 155.58C175.635 158.807 176.476 162.477 176.476 166.591C176.476 170.705 175.635 174.352 173.953 177.534C172.271 180.716 169.692 183.216 166.214 185.034C162.737 186.83 158.294 187.727 152.885 187.727H133.794V180.091H152.612C156.339 180.091 159.339 179.545 161.612 178.455C163.908 177.364 165.567 175.818 166.589 173.818C167.635 171.795 168.158 169.386 168.158 166.591C168.158 163.795 167.635 161.352 166.589 159.261C165.544 157.17 163.874 155.557 161.578 154.42C159.283 153.261 156.249 152.682 152.476 152.682H137.612V215H129.158ZM162.021 183.636L179.203 215H169.385L152.476 183.636H162.021ZM186.746 152.682V145.182H239.109V152.682H217.155V215H208.7V152.682H186.746ZM252.158 215V145.182H260.612V179.818H261.43L292.794 145.182H303.839L274.521 176.682L303.839 215H293.612L269.339 182.545L260.612 192.364V215H252.158ZM335.783 144.227C338.646 144.25 341.51 144.795 344.374 145.864C347.237 146.932 349.851 148.705 352.214 151.182C354.578 153.636 356.476 156.989 357.908 161.239C359.339 165.489 360.055 170.818 360.055 177.227C360.055 183.432 359.464 188.943 358.283 193.761C357.124 198.557 355.442 202.602 353.237 205.898C351.055 209.193 348.396 211.693 345.26 213.398C342.146 215.102 338.624 215.955 334.692 215.955C330.783 215.955 327.294 215.182 324.226 213.636C321.18 212.068 318.68 209.898 316.726 207.125C314.794 204.33 313.555 201.091 313.01 197.409H321.328C322.078 200.614 323.567 203.261 325.794 205.352C328.044 207.42 331.01 208.455 334.692 208.455C340.078 208.455 344.328 206.102 347.442 201.398C350.578 196.693 352.146 190.045 352.146 181.455H351.601C350.328 183.364 348.817 185.011 347.067 186.398C345.317 187.784 343.374 188.852 341.237 189.602C339.101 190.352 336.828 190.727 334.419 190.727C330.419 190.727 326.749 189.739 323.408 187.761C320.089 185.761 317.43 183.023 315.43 179.545C313.453 176.045 312.464 172.045 312.464 167.545C312.464 163.273 313.419 159.364 315.328 155.818C317.26 152.25 319.964 149.409 323.442 147.295C326.942 145.182 331.055 144.159 335.783 144.227ZM335.783 151.727C332.919 151.727 330.339 152.443 328.044 153.875C325.771 155.284 323.964 157.193 322.624 159.602C321.305 161.989 320.646 164.636 320.646 167.545C320.646 170.455 321.283 173.102 322.555 175.489C323.851 177.852 325.612 179.739 327.839 181.148C330.089 182.534 332.646 183.227 335.51 183.227C337.669 183.227 339.68 182.807 341.544 181.966C343.408 181.102 345.033 179.932 346.419 178.455C347.828 176.955 348.93 175.261 349.726 173.375C350.521 171.466 350.919 169.477 350.919 167.409C350.919 164.682 350.26 162.125 348.942 159.739C347.646 157.352 345.851 155.42 343.555 153.943C341.283 152.466 338.692 151.727 335.783 151.727ZM373.462 215V208.864L396.507 183.636C399.212 180.682 401.439 178.114 403.189 175.932C404.939 173.727 406.234 171.659 407.075 169.727C407.939 167.773 408.371 165.727 408.371 163.591C408.371 161.136 407.78 159.011 406.598 157.216C405.439 155.42 403.848 154.034 401.825 153.057C399.803 152.08 397.53 151.591 395.007 151.591C392.325 151.591 389.984 152.148 387.984 153.261C386.007 154.352 384.473 155.886 383.382 157.864C382.314 159.841 381.78 162.159 381.78 164.818H373.734C373.734 160.727 374.678 157.136 376.564 154.045C378.45 150.955 381.018 148.545 384.268 146.818C387.541 145.091 391.212 144.227 395.28 144.227C399.371 144.227 402.996 145.091 406.155 146.818C409.314 148.545 411.791 150.875 413.587 153.807C415.382 156.739 416.28 160 416.28 163.591C416.28 166.159 415.814 168.67 414.882 171.125C413.973 173.557 412.382 176.273 410.109 179.273C407.859 182.25 404.734 185.886 400.734 190.182L385.053 206.955V207.5H417.507V215H373.462Z" fill="white"/>
<path d="M74.236 274.088L74.268 276.52C76.124 276.648 77.788 276.712 79.644 276.712C83.388 276.712 87.292 276.456 90.684 275.88V273.416C87.452 274.088 83.516 274.376 79.676 274.376C77.788 274.376 76.06 274.28 74.236 274.088ZM85.436 268.36H82.556C82.652 268.936 82.684 269.768 82.684 270.344C82.684 271.464 82.716 273.48 82.716 275.688C82.716 279.912 83.132 285.896 83.132 288.2C83.132 290.344 82.364 291.688 79.676 291.688C77.34 291.688 75.772 290.824 75.772 289.16C75.772 287.624 77.436 286.568 79.836 286.568C83.9 286.568 87.132 288.744 90.492 291.88L91.868 289.768C89.18 287.336 85.436 284.616 80.06 284.616C75.836 284.616 73.468 286.728 73.468 289.416C73.468 292.296 75.804 294.024 80.092 294.024C84.412 294.024 85.628 291.464 85.628 288.84C85.628 285.544 85.148 280.552 85.148 275.624C85.148 273.736 85.18 271.464 85.244 270.28C85.276 269.672 85.34 269 85.436 268.36ZM69.66 268.584L66.844 268.328C66.812 269.032 66.748 269.864 66.62 270.632C66.236 273.256 65.148 279.368 65.148 284.072C65.148 288.392 65.756 291.912 66.364 294.216L68.636 294.024C68.604 293.704 68.572 293.224 68.54 292.904C68.508 292.552 68.572 291.912 68.668 291.464C68.988 289.896 70.172 286.632 70.972 284.392L69.66 283.368C69.116 284.68 68.316 286.632 67.804 288.104C67.58 286.536 67.484 285.192 67.484 283.624C67.484 280.04 68.444 273.704 69.084 270.728C69.212 270.152 69.468 269.096 69.66 268.584ZM104.188 267.912L103.548 270.376C106.012 271.016 112.924 272.424 115.996 272.84L116.604 270.408C113.756 270.12 106.94 268.808 104.188 267.912ZM103.484 273.768L100.796 273.416C100.604 276.744 99.804 283.464 99.164 286.376L101.564 286.952C101.756 286.44 102.044 285.928 102.524 285.384C104.764 282.664 108.22 281.096 112.412 281.096C115.676 281.096 118.076 282.92 118.076 285.448C118.076 289.832 113.148 292.744 103.036 291.528L103.804 294.12C115.676 295.112 120.764 291.24 120.764 285.544C120.764 281.768 117.5 278.824 112.604 278.824C108.764 278.824 105.244 280.072 102.172 282.76C102.492 280.68 103.068 275.944 103.484 273.768ZM139.644 267.848L136.604 267.592C136.668 268.264 136.604 269.352 136.476 270.248C136.252 271.912 135.42 275.944 134.652 278.888C133.436 283.4 131.196 289.896 129.276 293.224L132.06 294.152C133.756 290.664 135.9 284.04 137.052 279.496C137.948 276.296 138.62 272.68 139.1 270.376C139.228 269.768 139.452 268.552 139.644 267.848ZM132.572 273.192C131.388 273.192 130.236 273.128 128.732 272.936L128.796 275.432C129.98 275.528 131.1 275.56 132.508 275.56C135.964 275.56 140.796 275.016 144.764 274.12V271.624C140.796 272.616 136.092 273.192 132.572 273.192ZM142.684 277.576V279.976C144.636 279.752 146.62 279.624 148.604 279.624C150.492 279.624 152.348 279.816 154.012 280.008L154.076 277.576C152.348 277.384 150.396 277.32 148.54 277.32C146.492 277.32 144.348 277.416 142.684 277.576ZM143.324 285.352L140.956 285.128C140.668 286.472 140.476 287.688 140.476 288.904C140.476 292.072 143.228 293.608 148.252 293.608C150.588 293.608 152.732 293.416 154.46 293.16L154.556 290.6C152.572 290.984 150.396 291.208 148.284 291.208C143.74 291.208 142.876 289.736 142.876 288.232C142.876 287.4 143.068 286.408 143.324 285.352ZM180.028 269.416L177.628 267.304C177.276 267.88 176.444 268.808 175.804 269.448C173.66 271.624 168.796 275.464 166.364 277.48C163.484 279.912 163.132 281.288 166.14 283.816C169.148 286.28 173.98 290.44 176.252 292.744C177.02 293.544 177.788 294.312 178.46 295.08L180.732 293C177.34 289.576 171.676 285.032 168.764 282.632C166.684 280.904 166.716 280.424 168.636 278.76C171.004 276.776 175.612 273.16 177.82 271.24C178.332 270.792 179.324 269.928 180.028 269.416Z" fill="white"/>
<line x1="37" y1="249.5" x2="437" y2="249.5" stroke="#9C4FD9"/>
</g>
<path d="M40 0.5H1460C1481.82 0.5 1499.5 18.1848 1499.5 40V310C1499.5 331.815 1481.82 349.5 1460 349.5H40C18.1847 349.5 0.5 331.815 0.5 310V40C0.5 18.1848 18.1848 0.5 40 0.5Z" stroke="black"/>
</g>
<defs>
<filter id="filter0_i_1_3" x="0" y="0" width="1500" height="354" filterUnits="userSpaceOnUse" color-interpolation-filters="sRGB">
<feFlood flood-opacity="0" result="BackgroundImageFix"/>
<feBlend mode="normal" in="SourceGraphic" in2="BackgroundImageFix" result="shape"/>
<feColorMatrix in="SourceAlpha" type="matrix" values="0 0 0 0 0 0 0 0 0 0 0 0 0 0 0 0 0 0 127 0" result="hardAlpha"/>
<feOffset dy="4"/>
<feGaussianBlur stdDeviation="2"/>
<feComposite in2="hardAlpha" operator="arithmetic" k2="-1" k3="1"/>
<feColorMatrix type="matrix" values="0 0 0 0 0 0 0 0 0 0 0 0 0 0 0 0 0 0 0.25 0"/>
<feBlend mode="normal" in2="shape" result="effect1_innerShadow_1_3"/>
</filter>
<radialGradient id="paint0_angular_1_3" cx="0" cy="0" r="1" gradientUnits="userSpaceOnUse" gradientTransform="translate(237 236) rotate(90) scale(200)">
<stop stop-color="#9920F8"/>
<stop offset="0.232292" stop-color="#9920F8" stop-opacity="0.647917"/>
<stop offset="1" stop-color="#9920F8" stop-opacity="0"/>
</radialGradient>
<clipPath id="clip0_1_3">
<path d="M0 40C0 17.9086 17.9086 0 40 0H1460C1482.09 0 1500 17.9086 1500 40V310C1500 332.091 1482.09 350 1460 350H40C17.9086 350 0 332.091 0 310V40Z" fill="white"/>
</clipPath>
</defs>
</svg>
